<svg xmlns="http://www.w3.org/2000/svg"  viewBox="0 0 48 48" width="48px" height="48px" baseProfile="basic"><linearGradient id="h_Mf-NXBgiNYGydh6al-ga" x1="17.21" x2="37.725" y1="947.262" y2="883.021" gradientTransform="matrix(1 0 0 -1 0 950)" gradientUnits="userSpaceOnUse"><stop offset="0" stop-color="#dfe9f2"/><stop offset=".391" stop-color="#d6e0e9"/><stop offset="1" stop-color="#bfc8d1"/></linearGradient><path fill="url(#h_Mf-NXBgiNYGydh6al-ga)" d="M35,42H13c-3.866,0-7-3.134-7-7V13c0-3.866,3.134-7,7-7h22c3.866,0,7,3.134,7,7v22	C42,38.866,38.866,42,35,42z"/><linearGradient id="h_Mf-NXBgiNYGydh6al-gb" x1="-12.732" x2="44.635" y1="-11.732" y2="45.635" gradientUnits="userSpaceOnUse"><stop offset="0" stop-color="#fed100"/><stop offset="1" stop-color="#e36001"/></linearGradient><path fill="url(#h_Mf-NXBgiNYGydh6al-gb)" d="M35.602,20.924L34,19.692V15.5c0-0.276-0.224-0.5-0.5-0.5h-2c-0.276,0-0.5,0.224-0.5,0.5	v1.885l-6.634-5.103c-0.216-0.166-0.516-0.166-0.732,0l-11.236,8.643C11.944,21.274,12.191,22,12.764,22H14v12.5	c0,0.276,0.224,0.5,0.5,0.5h19c0.276,0,0.5-0.224,0.5-0.5V22h1.236C35.809,22,36.056,21.274,35.602,20.924z"/><linearGradient id="h_Mf-NXBgiNYGydh6al-gc" x1="1.039" x2="51.08" y1="3.877" y2="53.918" gradientUnits="userSpaceOnUse"><stop offset="0" stop-color="#fed100"/><stop offset="1" stop-color="#e36001"/></linearGradient><polygon fill="url(#h_Mf-NXBgiNYGydh6al-gc)" points="16,33 16,20.677 24,14.523 32,20.677 32,33"/><linearGradient id="h_Mf-NXBgiNYGydh6al-gd" x1="14.182" x2="54.219" y1="16.513" y2="56.55" gradientUnits="userSpaceOnUse"><stop offset="0" stop-color="#fed100"/><stop offset="1" stop-color="#e36001"/></linearGradient><polygon fill="url(#h_Mf-NXBgiNYGydh6al-gd)" points="18,31 18,21.662 24,17.046 30,21.662 30,31"/><linearGradient id="h_Mf-NXBgiNYGydh6al-ge" x1="-12.115" x2="33.818" y1="-10.292" y2="35.641" gradientUnits="userSpaceOnUse"><stop offset="0" stop-color="#ffd869"/><stop offset="1" stop-color="#fec52b"/></linearGradient><polygon fill="url(#h_Mf-NXBgiNYGydh6al-ge)" points="20,29 20,22.647 24,19.57 28,22.647 28,29"/><linearGradient id="h_Mf-NXBgiNYGydh6al-gf" x1="22.402" x2="68.501" y1="23.718" y2="69.817" gradientUnits="userSpaceOnUse"><stop offset="0" stop-color="#ffd869"/><stop offset="1" stop-color="#fec52b"/></linearGradient><polygon fill="url(#h_Mf-NXBgiNYGydh6al-gf)" points="22,27 22,23.632 24,22.093 26,23.632 26,27"/></svg>